<?xml version="1.0" encoding="utf-8"?>
<!-- Generator: Adobe Illustrator 25.0.1, SVG Export Plug-In . SVG Version: 6.00 Build 0)  -->
<svg version="1.1" id="Слой_1" xmlns="http://www.w3.org/2000/svg" xmlns:xlink="http://www.w3.org/1999/xlink" x="0px" y="0px"
	 viewBox="0 0 300 300" style="enable-background:new 0 0 300 300;" xml:space="preserve">
<style type="text/css">
	.st0{fill:url(#SVGID_1_);}
	.st1{fill:#F4F4F4;}
</style>
<g>
	<linearGradient id="SVGID_1_" gradientUnits="userSpaceOnUse" x1="108.3538" y1="150.3882" x2="192.0804" y2="150.3882">
		<stop  offset="0" style="stop-color:#004CFF"/>
		<stop  offset="1" style="stop-color:#FF268C"/>
	</linearGradient>
	<circle class="st0" cx="150.22" cy="150.39" r="41.86"/>
	<g>
		<path class="st1" d="M141.48,159.6c1.35,1.35,4.07,3.91,5.93,4.37c1.86,0.46,3.24-0.58,4.69-1.83c0.76-0.65,1.1-1.41,2.96-1.75
			c1.92-0.35,7.33,3.25,8.62,4.79c3.94,4.68,0.41,9.91-4.92,10.36c-6.59,0.55-15.38-5.45-21.58-11.65s-12.2-14.98-11.65-21.58
			c0.45-5.33,5.68-8.86,10.36-4.92c1.54,1.3,5.13,6.71,4.79,8.62c-0.33,1.85-1.09,2.19-1.75,2.96c-1.25,1.45-2.28,2.83-1.83,4.69
			C137.57,155.52,140.13,158.25,141.48,159.6z"/>
		<g>
			<path class="st1" d="M159.33,153.1c-0.61-0.1-1.18-0.64-1.3-1.28c-0.9-4.75-4.3-8.23-9.09-9.33c-0.67-0.15-1.23-0.82-1.23-1.49
				c-0.01-0.67,0.55-1.07,1.21-0.93c5.97,1.36,10.39,5.91,11.51,11.86c0.13,0.68-0.3,1.22-0.96,1.18
				C159.43,153.11,159.38,153.11,159.33,153.1z"/>
		</g>
		<g>
			<path class="st1" d="M166.71,154.41c-0.65-0.1-1.23-0.7-1.31-1.36c-1.22-9.74-7.07-16.06-16.94-18.26
				c-0.67-0.15-1.23-0.81-1.24-1.48c-0.01-0.67,0.55-1.08,1.2-0.94c11.13,2.49,18.02,9.93,19.4,20.96c0.09,0.68-0.39,1.17-1.06,1.1
				C166.75,154.42,166.73,154.42,166.71,154.41z"/>
		</g>
		<g>
			<path class="st1" d="M173.8,155.52c-0.62-0.1-1.19-0.66-1.3-1.31c-2.68-15.93-10.03-23.87-24.59-26.55
				c-0.67-0.12-1.25-0.77-1.29-1.45c-0.04-0.67,0.46-1.12,1.15-1c15.87,2.92,24.23,11.91,27.13,29.15c0.12,0.68-0.33,1.2-0.99,1.16
				C173.88,155.53,173.84,155.53,173.8,155.52z"/>
		</g>
	</g>
</g>
</svg>
