<?xml version="1.0" encoding="utf-8"?>
<!-- Generator: Adobe Illustrator 25.0.1, SVG Export Plug-In . SVG Version: 6.00 Build 0)  -->
<svg version="1.1" id="Слой_1" xmlns="http://www.w3.org/2000/svg" xmlns:xlink="http://www.w3.org/1999/xlink" x="0px" y="0px"
	 viewBox="0 0 300 300" style="enable-background:new 0 0 300 300;" xml:space="preserve">
<style type="text/css">
	.st0{fill:url(#SVGID_1_);}
	.st1{fill:#F4F4F4;}
</style>
<g>
	<linearGradient id="SVGID_1_" gradientUnits="userSpaceOnUse" x1="108.3538" y1="150.3882" x2="192.0804" y2="150.3882">
		<stop  offset="0" style="stop-color:#004CFF"/>
		<stop  offset="1" style="stop-color:#FF268C"/>
	</linearGradient>
	<circle class="st0" cx="150.22" cy="150.39" r="41.86"/>
	<path class="st1" d="M125.05,137.54c2.36,0,7.39,0,9.09,0c0.35,0,0.67,0.21,0.81,0.53c2.09,4.54,4.63,8.65,7.7,12.27
		c0.26,0.42,0.9,0.38,1.09-0.08c0.96-2.33,2.73-8-0.7-12.02c-0.3-0.36-0.18-0.92,0.25-1.1c3.46-1.44,6.85-1.65,10.15-0.18
		c0.69,0.31,1.15,1,1.15,1.76l0.77,11.67c0,0.52,0.47,0.93,0.98,0.83c3.8-0.81,6.04-6.5,8.25-12.45c0.27-0.73,0.96-1.22,1.75-1.22
		h8.37c0.68,0,1.24,0.61,1.11,1.28c-0.79,4.22-5.03,9.69-7.25,12.32c-0.77,0.91-0.77,2.24-0.01,3.15l7.49,8.92
		c0.54,0.64,0.08,1.62-0.75,1.62h-9.48c-0.78,0-1.52-0.33-2.05-0.9l-6.63-5.52c-0.35-0.37-1-0.51-1.32-0.12
		c-0.82,1-0.76,2.23-1.15,5.03c-0.12,0.87-0.91,1.5-1.79,1.5h-6.48c-0.92,0-1.83-0.19-2.66-0.59c-3.72-1.76-13.88-8.01-19.59-25.5
		C123.99,138.16,124.43,137.54,125.05,137.54z"/>
</g>
</svg>
