<?xml version="1.0" encoding="utf-8"?>
<!-- Generator: Adobe Illustrator 25.0.1, SVG Export Plug-In . SVG Version: 6.00 Build 0)  -->
<svg version="1.1" id="Слой_1" xmlns="http://www.w3.org/2000/svg" xmlns:xlink="http://www.w3.org/1999/xlink" x="0px" y="0px"
	 viewBox="0 0 300 300" style="enable-background:new 0 0 300 300;" xml:space="preserve">
<style type="text/css">
	.st0{fill:url(#SVGID_1_);}
	.st1{fill:none;stroke:#F4F4F4;stroke-width:2;stroke-miterlimit:10;}
	.st2{fill:#F4F4F4;}
</style>
<g>
	<linearGradient id="SVGID_1_" gradientUnits="userSpaceOnUse" x1="108.3538" y1="150.3882" x2="192.0804" y2="150.3882">
		<stop  offset="0" style="stop-color:#004CFF"/>
		<stop  offset="1" style="stop-color:#FF268C"/>
	</linearGradient>
	<circle class="st0" cx="150.22" cy="150.39" r="41.86"/>
	<path class="st1" d="M132.78,162.73l-3.32,10.31l9.75-4.38c8.51,5.1,19.71,3.72,26.7-3.86c8-8.68,7.46-22.21-1.23-30.21
		c-8.68-8-22.21-7.46-30.21,1.23C127.46,143.41,126.97,154.66,132.78,162.73L132.78,162.73z"/>
	<path class="st2" d="M148.25,152.32c0.82,0.82,2.47,2.37,3.6,2.65c1.13,0.28,1.96-0.35,2.84-1.11c0.46-0.4,0.67-0.86,1.79-1.06
		c1.16-0.21,4.44,1.97,5.23,2.9c2.39,2.83,0.25,6.01-2.98,6.28c-3.99,0.33-9.32-3.3-13.07-7.06c-3.76-3.76-7.39-9.08-7.06-13.07
		c0.27-3.23,3.44-5.37,6.28-2.98c0.93,0.79,3.11,4.06,2.9,5.23c-0.2,1.12-0.66,1.33-1.06,1.79c-0.76,0.88-1.38,1.71-1.11,2.84
		C145.88,149.85,147.43,151.5,148.25,152.32z"/>
</g>
</svg>
